<mxfile host="app.diagrams.net" modified="2023-06-07T05:31:59.862Z" agent="Mozilla/5.0 (Windows NT 10.0; Win64; x64) AppleWebKit/537.36 (KHTML, like Gecko) Chrome/114.0.0.0 Safari/537.36" version="21.3.7" etag="0DccswH4VgZYOds19Ipy" type="github">
  <diagram name="第 1 页" id="VeFxdyZtD6nsUnF1-Jrf">
    <mxGraphModel>
      <root>
        <mxCell id="0" />
        <mxCell id="1" parent="0" />
      </root>
    </mxGraphModel>
  </diagram>
</mxfile>
